<svg width="375" height="40" viewBox="0 0 375 40" fill="none" xmlns="http://www.w3.org/2000/svg">
<rect x="0.5" y="0.5" width="374" height="39" rx="3.5" fill="white"/>
<rect x="0.5" y="0.5" width="374" height="39" rx="3.5" stroke="#70C05B"/>
<path d="M17.76 25C17.6533 25 17.5627 24.968 17.488 24.904C17.424 24.8293 17.392 24.7387 17.392 24.632V14.184C17.392 14.0667 17.424 13.976 17.488 13.912C17.5627 13.8373 17.6533 13.8 17.76 13.8H18.576C18.6933 13.8 18.784 13.8373 18.848 13.912C18.9227 13.976 18.96 14.0667 18.96 14.184V18.6H24.464V14.184C24.464 14.0667 24.496 13.976 24.56 13.912C24.6347 13.8373 24.7253 13.8 24.832 13.8H25.648C25.7653 13.8 25.856 13.8373 25.92 13.912C25.9947 13.976 26.032 14.0667 26.032 14.184V24.632C26.032 24.7387 25.9947 24.8293 25.92 24.904C25.8453 24.968 25.7547 25 25.648 25H24.832C24.7253 25 24.6347 24.968 24.56 24.904C24.496 24.8293 24.464 24.7387 24.464 24.632V20.04H18.96V24.632C18.96 24.7387 18.9227 24.8293 18.848 24.904C18.7733 24.968 18.6827 25 18.576 25H17.76ZM30.9259 25.16C30.4032 25.16 29.9179 25.0533 29.4699 24.84C29.0219 24.6267 28.6645 24.3387 28.3979 23.976C28.1419 23.6027 28.0139 23.192 28.0139 22.744C28.0139 22.04 28.3019 21.464 28.8779 21.016C29.4645 20.5573 30.2539 20.2587 31.2459 20.12L33.6299 19.784V19.32C33.6299 18.232 33.0059 17.688 31.7579 17.688C31.2885 17.688 30.9045 17.7893 30.6059 17.992C30.3072 18.184 30.0832 18.4133 29.9339 18.68C29.9019 18.776 29.8592 18.8453 29.8059 18.888C29.7632 18.9307 29.6992 18.952 29.6139 18.952H28.9259C28.8299 18.952 28.7445 18.92 28.6699 18.856C28.6059 18.7813 28.5739 18.696 28.5739 18.6C28.5845 18.344 28.7019 18.056 28.9259 17.736C29.1605 17.4053 29.5179 17.1227 29.9979 16.888C30.4779 16.6427 31.0699 16.52 31.7739 16.52C32.9685 16.52 33.8272 16.8027 34.3499 17.368C34.8725 17.9227 35.1339 18.616 35.1339 19.448V24.632C35.1339 24.7387 35.0965 24.8293 35.0219 24.904C34.9579 24.968 34.8725 25 34.7659 25H34.0299C33.9232 25 33.8325 24.968 33.7579 24.904C33.6939 24.8293 33.6619 24.7387 33.6619 24.632V23.944C33.4272 24.2853 33.0859 24.5733 32.6379 24.808C32.1899 25.0427 31.6192 25.16 30.9259 25.16ZM31.2619 23.96C31.9552 23.96 32.5205 23.736 32.9579 23.288C33.4059 22.8293 33.6299 22.1733 33.6299 21.32V20.872L31.7739 21.144C31.0165 21.2507 30.4459 21.432 30.0619 21.688C29.6779 21.9333 29.4859 22.248 29.4859 22.632C29.4859 23.0587 29.6619 23.3893 30.0139 23.624C30.3659 23.848 30.7819 23.96 31.2619 23.96ZM44.506 16.68C44.5913 16.68 44.666 16.712 44.73 16.776C44.8047 16.84 44.842 16.9147 44.842 17V24.632C44.842 24.7387 44.8047 24.8293 44.73 24.904C44.666 24.968 44.5807 25 44.474 25H43.722C43.6153 25 43.5247 24.968 43.45 24.904C43.386 24.8293 43.354 24.7387 43.354 24.632V18.824L38.922 24.76C38.8047 24.92 38.666 25 38.506 25H37.786C37.69 25 37.6047 24.968 37.53 24.904C37.466 24.8293 37.434 24.7493 37.434 24.664V17.048C37.434 16.9413 37.466 16.856 37.53 16.792C37.6047 16.7173 37.6953 16.68 37.802 16.68H38.57C38.6767 16.68 38.762 16.7173 38.826 16.792C38.9007 16.856 38.938 16.9413 38.938 17.048V22.824L43.354 16.92C43.4713 16.76 43.61 16.68 43.77 16.68H44.506ZM41.178 15.576C40.3247 15.576 39.7113 15.3893 39.338 15.016C38.9647 14.6427 38.778 14.1627 38.778 13.576C38.778 13.4907 38.8047 13.4213 38.858 13.368C38.9113 13.304 38.986 13.272 39.082 13.272H39.626C39.722 13.272 39.7967 13.304 39.85 13.368C39.9033 13.4213 39.93 13.4907 39.93 13.576C39.93 14.248 40.346 14.584 41.178 14.584C42.01 14.584 42.426 14.248 42.426 13.576C42.426 13.4907 42.4527 13.4213 42.506 13.368C42.5593 13.304 42.634 13.272 42.73 13.272H43.29C43.386 13.272 43.4607 13.304 43.514 13.368C43.5673 13.4213 43.594 13.4907 43.594 13.576C43.594 14.152 43.402 14.632 43.018 15.016C42.6447 15.3893 42.0313 15.576 41.178 15.576ZM49.728 25C49.6213 25 49.5307 24.968 49.456 24.904C49.392 24.8293 49.36 24.7387 49.36 24.632V17.96H46.576C46.4693 17.96 46.3787 17.928 46.304 17.864C46.24 17.7893 46.208 17.6987 46.208 17.592V17.048C46.208 16.9413 46.24 16.856 46.304 16.792C46.3787 16.7173 46.4693 16.68 46.576 16.68H53.616C53.7227 16.68 53.808 16.7173 53.872 16.792C53.9467 16.856 53.984 16.9413 53.984 17.048V17.592C53.984 17.6987 53.9467 17.7893 53.872 17.864C53.808 17.928 53.7227 17.96 53.616 17.96H50.832V24.632C50.832 24.7387 50.8 24.8293 50.736 24.904C50.672 24.968 50.5867 25 50.48 25H49.728ZM62.4435 16.68C62.5288 16.68 62.6035 16.712 62.6675 16.776C62.7422 16.84 62.7795 16.9147 62.7795 17V24.632C62.7795 24.7387 62.7422 24.8293 62.6675 24.904C62.6035 24.968 62.5182 25 62.4115 25H61.6595C61.5528 25 61.4622 24.968 61.3875 24.904C61.3235 24.8293 61.2915 24.7387 61.2915 24.632V18.824L56.8595 24.76C56.7422 24.92 56.6035 25 56.4435 25H55.7235C55.6275 25 55.5422 24.968 55.4675 24.904C55.4035 24.8293 55.3715 24.7493 55.3715 24.664V17.048C55.3715 16.9413 55.4035 16.856 55.4675 16.792C55.5422 16.7173 55.6328 16.68 55.7395 16.68H56.5075C56.6142 16.68 56.6995 16.7173 56.7635 16.792C56.8382 16.856 56.8755 16.9413 56.8755 17.048V22.824L61.2915 16.92C61.4088 16.76 61.5475 16.68 61.7075 16.68H62.4435ZM71.5874 25C71.4807 25 71.39 24.968 71.3154 24.904C71.2514 24.8293 71.2194 24.7387 71.2194 24.632V17.96H68.4354C68.3287 17.96 68.238 17.928 68.1634 17.864C68.0994 17.7893 68.0674 17.6987 68.0674 17.592V17.048C68.0674 16.9413 68.0994 16.856 68.1634 16.792C68.238 16.7173 68.3287 16.68 68.4354 16.68H75.4754C75.582 16.68 75.6674 16.7173 75.7314 16.792C75.806 16.856 75.8434 16.9413 75.8434 17.048V17.592C75.8434 17.6987 75.806 17.7893 75.7314 17.864C75.6674 17.928 75.582 17.96 75.4754 17.96H72.6914V24.632C72.6914 24.7387 72.6594 24.8293 72.5954 24.904C72.5314 24.968 72.446 25 72.3394 25H71.5874ZM80.6389 25.16C79.4655 25.16 78.5535 24.8293 77.9029 24.168C77.2629 23.5067 76.9215 22.6267 76.8789 21.528L76.8629 20.84L76.8789 20.152C76.9215 19.064 77.2682 18.1893 77.9189 17.528C78.5695 16.856 79.4762 16.52 80.6389 16.52C81.8015 16.52 82.7082 16.856 83.3589 17.528C84.0095 18.1893 84.3562 19.064 84.3989 20.152C84.4095 20.2693 84.4149 20.4987 84.4149 20.84C84.4149 21.1813 84.4095 21.4107 84.3989 21.528C84.3562 22.6267 84.0095 23.5067 83.3589 24.168C82.7189 24.8293 81.8122 25.16 80.6389 25.16ZM80.6389 23.928C81.3109 23.928 81.8389 23.7147 82.2229 23.288C82.6175 22.8613 82.8309 22.248 82.8629 21.448C82.8735 21.3413 82.8789 21.1387 82.8789 20.84C82.8789 20.5413 82.8735 20.3387 82.8629 20.232C82.8309 19.432 82.6175 18.8187 82.2229 18.392C81.8389 17.9653 81.3109 17.752 80.6389 17.752C79.9669 17.752 79.4335 17.9653 79.0389 18.392C78.6442 18.8187 78.4362 19.432 78.4149 20.232L78.3989 20.84L78.4149 21.448C78.4362 22.248 78.6442 22.8613 79.0389 23.288C79.4335 23.7147 79.9669 23.928 80.6389 23.928ZM86.7864 25C86.6797 25 86.589 24.968 86.5144 24.904C86.4504 24.8293 86.4184 24.7387 86.4184 24.632V17.048C86.4184 16.9413 86.4504 16.856 86.5144 16.792C86.589 16.7173 86.6797 16.68 86.7864 16.68H90.1144C91.0957 16.68 91.8424 16.8827 92.3544 17.288C92.877 17.6827 93.1384 18.2267 93.1384 18.92C93.1384 19.3787 93.053 19.736 92.8824 19.992C92.7117 20.2373 92.4504 20.4507 92.0984 20.632C92.4824 20.792 92.781 21.0587 92.9944 21.432C93.2184 21.8053 93.3304 22.2053 93.3304 22.632C93.3304 23.4 93.0584 23.9867 92.5144 24.392C91.981 24.7973 91.2237 25 90.2424 25H86.7864ZM90.0184 20.216C90.541 20.216 90.9517 20.104 91.2504 19.88C91.549 19.656 91.6984 19.3413 91.6984 18.936C91.6984 18.5413 91.5544 18.264 91.2664 18.104C90.9784 17.9333 90.5624 17.848 90.0184 17.848H87.8904V20.216H90.0184ZM90.1144 23.832C90.6477 23.832 91.0637 23.7307 91.3624 23.528C91.6717 23.3253 91.8264 23.0267 91.8264 22.632C91.8264 22.2053 91.6877 21.896 91.4104 21.704C91.133 21.5013 90.701 21.4 90.1144 21.4H87.8904V23.832H90.1144ZM97.7071 25.16C97.1845 25.16 96.6991 25.0533 96.2511 24.84C95.8031 24.6267 95.4458 24.3387 95.1791 23.976C94.9231 23.6027 94.7951 23.192 94.7951 22.744C94.7951 22.04 95.0831 21.464 95.6591 21.016C96.2458 20.5573 97.0351 20.2587 98.0271 20.12L100.411 19.784V19.32C100.411 18.232 99.7871 17.688 98.5391 17.688C98.0698 17.688 97.6858 17.7893 97.3871 17.992C97.0885 18.184 96.8645 18.4133 96.7151 18.68C96.6831 18.776 96.6405 18.8453 96.5871 18.888C96.5445 18.9307 96.4805 18.952 96.3951 18.952H95.7071C95.6111 18.952 95.5258 18.92 95.4511 18.856C95.3871 18.7813 95.3551 18.696 95.3551 18.6C95.3658 18.344 95.4831 18.056 95.7071 17.736C95.9418 17.4053 96.2991 17.1227 96.7791 16.888C97.2591 16.6427 97.8511 16.52 98.5551 16.52C99.7498 16.52 100.608 16.8027 101.131 17.368C101.654 17.9227 101.915 18.616 101.915 19.448V24.632C101.915 24.7387 101.878 24.8293 101.803 24.904C101.739 24.968 101.654 25 101.547 25H100.811C100.704 25 100.614 24.968 100.539 24.904C100.475 24.8293 100.443 24.7387 100.443 24.632V23.944C100.208 24.2853 99.8671 24.5733 99.4191 24.808C98.9711 25.0427 98.4005 25.16 97.7071 25.16ZM98.0431 23.96C98.7365 23.96 99.3018 23.736 99.7391 23.288C100.187 22.8293 100.411 22.1733 100.411 21.32V20.872L98.5551 21.144C97.7978 21.2507 97.2271 21.432 96.8431 21.688C96.4591 21.9333 96.2671 22.248 96.2671 22.632C96.2671 23.0587 96.4431 23.3893 96.7951 23.624C97.1471 23.848 97.5631 23.96 98.0431 23.96ZM104.599 28.04C104.493 28.04 104.402 28.0027 104.327 27.928C104.263 27.864 104.231 27.7787 104.231 27.672V17.048C104.231 16.9413 104.263 16.856 104.327 16.792C104.402 16.7173 104.493 16.68 104.599 16.68H105.335C105.442 16.68 105.527 16.7173 105.591 16.792C105.666 16.856 105.703 16.9413 105.703 17.048V17.752C106.301 16.9307 107.175 16.52 108.327 16.52C109.447 16.52 110.285 16.872 110.839 17.576C111.405 18.28 111.709 19.1867 111.751 20.296C111.762 20.4133 111.767 20.5947 111.767 20.84C111.767 21.0853 111.762 21.2667 111.751 21.384C111.709 22.4827 111.405 23.3893 110.839 24.104C110.274 24.808 109.437 25.16 108.327 25.16C107.218 25.16 106.354 24.76 105.735 23.96V27.672C105.735 27.7787 105.703 27.864 105.639 27.928C105.575 28.0027 105.49 28.04 105.383 28.04H104.599ZM107.991 23.864C108.749 23.864 109.298 23.6293 109.639 23.16C109.991 22.6907 110.183 22.072 110.215 21.304C110.226 21.1973 110.231 21.0427 110.231 20.84C110.231 18.824 109.485 17.816 107.991 17.816C107.255 17.816 106.701 18.0613 106.327 18.552C105.965 19.032 105.767 19.608 105.735 20.28L105.719 20.888L105.735 21.512C105.757 22.1413 105.959 22.6907 106.343 23.16C106.727 23.6293 107.277 23.864 107.991 23.864Z" fill="#8F8F8F"/>
<path fill-rule="evenodd" clip-rule="evenodd" d="M345.5 18.5C345.5 14.0817 349.082 10.5 353.5 10.5C357.918 10.5 361.5 14.0817 361.5 18.5C361.5 22.9183 357.918 26.5 353.5 26.5C349.082 26.5 345.5 22.9183 345.5 18.5ZM353.5 11.5C349.634 11.5 346.5 14.634 346.5 18.5C346.5 22.366 349.634 25.5 353.5 25.5C357.366 25.5 360.5 22.366 360.5 18.5C360.5 14.634 357.366 11.5 353.5 11.5Z" fill="#414141"/>
<path fill-rule="evenodd" clip-rule="evenodd" d="M358.446 23.4464C358.642 23.2512 358.958 23.2512 359.153 23.4464L364.353 28.6464C364.549 28.8417 364.549 29.1583 364.353 29.3535C364.158 29.5488 363.842 29.5488 363.646 29.3535L358.446 24.1535C358.251 23.9583 358.251 23.6417 358.446 23.4464Z" fill="#414141"/>
</svg>
